# xmcd
#
# Track frame offsets: 
#        150
#        23035
#        47759
#        71367
#        101030
#        130455
#        150690
#        174175
#        195276
#        222261
#
# Disc length: 3303 seconds
#
# Revision: 0
# Processed by: cddbd v1.5.2PL0 Copyright (c) Steve Scherf et al.
# Submitted via: ExactAudioCopy v1.3
#
DISCID=800ce50a
DTITLE=John Ginty - Bad News Travels
DYEAR=2013
DGENRE=Blues
TTITLE0=The Quirk
TTITLE1=Black Cat
TTITLE2=Peanut Butter
TTITLE3=Seven and The Spirit
TTITLE4=Mirrors
TTITLE5=Switch
TTITLE6=Damage Control
TTITLE7=Rock Ridge
TTITLE8=Elvis Presley
TTITLE9=Trinity
EXTD=
EXTT0=
EXTT1=
EXTT2=
EXTT3=
EXTT4=
EXTT5=
EXTT6=
EXTT7=
EXTT8=
EXTT9=
PLAYORDER=
